<svg version="1.1" xmlns="http://www.w3.org/2000/svg" viewBox="0 0 2058.846666004545 1084.6139004252364" width="4117.69333200909" height="2169.2278008504727">
  <!-- svg-source:excalidraw -->
  
  <defs>
    <style class="style-fonts">
      @font-face {
        font-family: "Virgil";
        src: url("https://excalidraw.com/Virgil.woff2");
      }
      @font-face {
        font-family: "Cascadia";
        src: url("https://excalidraw.com/Cascadia.woff2");
      }
      @font-face {
        font-family: "Assistant";
        src: url("https://app.excalidraw.com//dist/excalidraw-assets/Assistant-Regular.woff2");
      }
    </style>
    
  </defs>
  <rect x="0" y="0" width="2058.846666004545" height="1084.6139004252364" fill="#ffffff"></rect><g stroke-linecap="round" transform="translate(141.4794888587785 104.41360858436747) rotate(0 176.54352431132338 33.66420184993876)"><path d="M4.48 3.89 C4.48 3.89, 4.48 3.89, 4.48 3.89 M4.48 3.89 C4.48 3.89, 4.48 3.89, 4.48 3.89 M1.99 18.95 C5.5 11.76, 11.98 6.8, 17.73 0.84 M1.99 18.95 C5 14.98, 7.36 12.12, 17.73 0.84 M2.78 30.24 C8.85 22.99, 12.28 18.41, 28.36 0.81 M2.78 30.24 C11.42 21.36, 21.03 9.58, 28.36 0.81 M2.91 42.28 C11.79 30.3, 19.68 19.88, 38.99 0.77 M2.91 42.28 C12.92 31.11, 24.25 19.64, 38.99 0.77 M3.04 54.32 C17.41 38.62, 33.25 17.71, 49.62 0.74 M3.04 54.32 C16.89 40.21, 29.68 24.26, 49.62 0.74 M6.46 62.59 C20.73 47.47, 35.43 31.79, 60.26 0.7 M6.46 62.59 C24.83 42.31, 41.41 21.97, 60.26 0.7 M13.15 67.08 C30.99 42.27, 52.73 19.45, 70.89 0.67 M13.15 67.08 C25.22 53.67, 37.6 38, 70.89 0.67 M23.78 67.05 C46.46 43.23, 64.93 17.72, 81.52 0.63 M23.78 67.05 C40.06 45.25, 58.82 26.52, 81.52 0.63 M34.41 67.01 C50.53 49.55, 66.08 32.79, 92.15 0.6 M34.41 67.01 C49.9 48.87, 66.12 29.28, 92.15 0.6 M45.04 66.98 C58.19 53.26, 68.4 40.48, 102.78 0.57 M45.04 66.98 C64.22 43.9, 84.7 19.76, 102.78 0.57 M55.67 66.95 C69.82 49.52, 86.68 28.18, 113.41 0.53 M55.67 66.95 C69.09 50.92, 82.1 34.43, 113.41 0.53 M66.3 66.91 C82.73 48.05, 101.06 28.88, 123.38 1.25 M66.3 66.91 C86.79 43.53, 106.04 20.52, 123.38 1.25 M76.28 67.63 C95.8 48.24, 114.29 26.79, 134.01 1.22 M76.28 67.63 C98.23 41.99, 122.18 16.04, 134.01 1.22 M86.91 67.6 C102.37 50.4, 122.56 30.42, 144.64 1.18 M86.91 67.6 C106.24 46.28, 124.02 24.41, 144.64 1.18 M97.54 67.56 C116.96 44.43, 136.38 24.07, 155.27 1.15 M97.54 67.56 C115.31 46.41, 135.96 24.87, 155.27 1.15 M108.17 67.53 C129.14 45.11, 145.26 23.7, 165.9 1.11 M108.17 67.53 C122.33 50.31, 137.47 32.86, 165.9 1.11 M118.8 67.49 C139.82 44.22, 158.43 21.93, 176.53 1.08 M118.8 67.49 C140.44 42.02, 162.29 17.56, 176.53 1.08 M129.43 67.46 C146.32 45.78, 165.28 21.46, 187.16 1.04 M129.43 67.46 C147.85 47.2, 164.78 27.19, 187.16 1.04 M140.06 67.42 C156.9 47.52, 170.54 30.96, 197.79 1.01 M140.06 67.42 C157.84 46.53, 176.12 25.35, 197.79 1.01 M150.69 67.39 C166.09 49.76, 180.51 30.79, 208.42 0.98 M150.69 67.39 C173.16 42.6, 195.83 16.52, 208.42 0.98 M161.32 67.36 C178.96 44.95, 200.51 22.23, 219.05 0.94 M161.32 67.36 C178.75 47.48, 195.4 28.23, 219.05 0.94 M171.95 67.32 C188.23 46.13, 207.27 26.16, 229.68 0.91 M171.95 67.32 C189.18 45.95, 207.13 26.6, 229.68 0.91 M182.58 67.29 C201.23 48.08, 219.71 23.93, 240.31 0.87 M182.58 67.29 C199.62 48.97, 214.39 28.91, 240.31 0.87 M193.21 67.25 C205.87 52.02, 221.19 34.97, 250.94 0.84 M193.21 67.25 C212.6 45.68, 231.76 23.81, 250.94 0.84 M203.84 67.22 C225.16 40.9, 245.25 18.43, 261.57 0.8 M203.84 67.22 C218.14 50.64, 233.5 33.17, 261.57 0.8 M214.47 67.18 C229.89 48.63, 246.04 31.15, 272.2 0.77 M214.47 67.18 C235.79 42.99, 254.97 19.41, 272.2 0.77 M225.1 67.15 C242 46.67, 259.08 27.57, 282.83 0.73 M225.1 67.15 C247.65 40.18, 270.96 14.4, 282.83 0.73 M235.73 67.11 C253.91 45.85, 270.29 26.18, 293.46 0.7 M235.73 67.11 C257.13 44.38, 277.77 20.09, 293.46 0.7 M246.36 67.08 C264.79 46.62, 283.98 23.59, 304.09 0.66 M246.36 67.08 C262.11 48.1, 277.89 30.15, 304.09 0.66 M256.99 67.04 C273.54 48.88, 291.04 26.76, 314.07 1.38 M256.99 67.04 C279.51 43.1, 301.01 17.2, 314.07 1.38 M266.96 67.76 C289.04 41.99, 312.32 14.99, 324.7 1.35 M266.96 67.76 C283.73 48.37, 300.51 29.24, 324.7 1.35 M277.59 67.73 C299.65 42.52, 322.49 12.65, 335.33 1.32 M277.59 67.73 C292.65 50.9, 307.52 34.89, 335.33 1.32 M288.22 67.7 C306.77 47.43, 320.71 28.66, 343.99 3.55 M288.22 67.7 C300.25 51.79, 314.33 37.11, 343.99 3.55 M298.85 67.66 C314.3 49.41, 327.79 31.77, 351.99 6.53 M298.85 67.66 C317.68 46.47, 335.15 24.8, 351.99 6.53 M309.48 67.63 C326.91 47.94, 342.86 30.21, 356.72 13.29 M309.48 67.63 C323.85 50.96, 337.77 34.87, 356.72 13.29 M320.11 67.59 C328.58 54.14, 339.07 44.16, 356.85 25.33 M320.11 67.59 C327.93 57.42, 337.98 47.93, 356.85 25.33 M330.74 67.56 C336.85 59.02, 343.35 55.04, 356.98 37.37 M330.74 67.56 C338.75 59.33, 344.25 51.17, 356.98 37.37 M339.4 69.79 C342.96 64.77, 349.18 57.29, 357.12 49.41 M339.4 69.79 C345.24 62.67, 351.48 54.6, 357.12 49.41" stroke="#ffc9c9" stroke-width="1" fill="none"></path><path d="M16.83 0 C112.68 -1.45, 208.48 -2.94, 336.25 0 M16.83 0 C85.7 0, 155.02 -0.86, 336.25 0 M336.25 0 C348.96 1.53, 353.91 5.41, 353.09 16.83 M336.25 0 C349.38 -1.19, 353.14 4.03, 353.09 16.83 M353.09 16.83 C355.32 22.76, 353.91 31.32, 353.09 50.5 M353.09 16.83 C354.04 30.85, 354.07 43.38, 353.09 50.5 M353.09 50.5 C352.81 60.24, 346.77 68.2, 336.25 67.33 M353.09 50.5 C351.13 62.31, 349.03 67.06, 336.25 67.33 M336.25 67.33 C218.67 66.68, 97.34 68.18, 16.83 67.33 M336.25 67.33 C208.71 68.96, 81.76 69.46, 16.83 67.33 M16.83 67.33 C5.25 68.4, -0.51 62.3, 0 50.5 M16.83 67.33 C5.04 67.47, 0.17 59.85, 0 50.5 M0 50.5 C-1.56 43.78, -1.7 38.26, 0 16.83 M0 50.5 C0.24 37.79, -0.85 27.25, 0 16.83 M0 16.83 C0.92 4.91, 5.42 1.43, 16.83 0 M0 16.83 C0.89 6.97, 7.3 1.55, 16.83 0" stroke="#1e1e1e" stroke-width="2" fill="none"></path></g><g transform="translate(178.59707933221034 120.57781043430623) rotate(0 139.42593383789062 17.5)"><text x="139.42593383789062" y="24.528" font-family="Virgil, Segoe UI Emoji" font-size="28px" fill="#1e1e1e" text-anchor="middle" style="white-space: pre;" direction="ltr" dominant-baseline="alphabetic">Op-Node (Sequencer)</text></g><g stroke-linecap="round" transform="translate(717.4503839718673 108.47950622984717) rotate(0 176.54352431132338 33.66420184993876)"><path d="M4.48 3.89 C4.48 3.89, 4.48 3.89, 4.48 3.89 M4.48 3.89 C4.48 3.89, 4.48 3.89, 4.48 3.89 M1.99 18.95 C3.46 16.23, 9.22 10.97, 17.73 0.84 M1.99 18.95 C5.67 14.23, 10.46 9.18, 17.73 0.84 M2.78 30.24 C10.26 22.42, 14.64 15.06, 28.36 0.81 M2.78 30.24 C12.29 18.9, 22.51 6.88, 28.36 0.81 M2.91 42.28 C11.07 33.06, 17.98 23.31, 38.99 0.77 M2.91 42.28 C14.76 28.27, 26.88 14.16, 38.99 0.77 M3.04 54.32 C20.59 33.06, 37.82 14.75, 49.62 0.74 M3.04 54.32 C17.58 36.82, 34.25 19.52, 49.62 0.74 M6.46 62.59 C25.26 38.84, 45.24 20.13, 60.26 0.7 M6.46 62.59 C22.56 45.81, 37.74 26.19, 60.26 0.7 M13.15 67.08 C23.03 54.45, 35.19 39.78, 70.89 0.67 M13.15 67.08 C36.68 41.59, 58.71 16.72, 70.89 0.67 M23.78 67.05 C42.54 48.18, 62.1 23.27, 81.52 0.63 M23.78 67.05 C35.27 52.07, 47.24 39.37, 81.52 0.63 M34.41 67.01 C50.62 48.84, 67.81 27.17, 92.15 0.6 M34.41 67.01 C56.21 40.69, 79.94 16.21, 92.15 0.6 M45.04 66.98 C65.25 45.3, 83.78 21.48, 102.78 0.57 M45.04 66.98 C64.64 45.04, 84.75 21.66, 102.78 0.57 M55.67 66.95 C76.43 43.51, 100.18 17.83, 113.41 0.53 M55.67 66.95 C73 48.05, 90.61 28.14, 113.41 0.53 M66.3 66.91 C86.15 44.64, 104.12 23.52, 123.38 1.25 M66.3 66.91 C80.37 52.05, 94.14 36.2, 123.38 1.25 M76.28 67.63 C100.19 41.87, 120.82 14.11, 134.01 1.22 M76.28 67.63 C95.75 43.38, 115.78 20.28, 134.01 1.22 M86.91 67.6 C109.27 40.63, 132.76 17.02, 144.64 1.18 M86.91 67.6 C103.75 47.97, 120.4 29.34, 144.64 1.18 M97.54 67.56 C109.34 56.13, 118.42 39.49, 155.27 1.15 M97.54 67.56 C115.98 44.85, 135.09 24.9, 155.27 1.15 M108.17 67.53 C125.09 49.22, 144.22 26.94, 165.9 1.11 M108.17 67.53 C129.94 43.39, 150.25 19.62, 165.9 1.11 M118.8 67.49 C136.94 48.36, 152.05 29.11, 176.53 1.08 M118.8 67.49 C134.16 50.61, 149.39 31.88, 176.53 1.08 M129.43 67.46 C149.23 47.69, 167.18 26.28, 187.16 1.04 M129.43 67.46 C148.07 46.33, 166.86 24.45, 187.16 1.04 M140.06 67.42 C154.96 50.94, 169.93 33.8, 197.79 1.01 M140.06 67.42 C160.28 44.31, 181.42 20.78, 197.79 1.01 M150.69 67.39 C172 44.89, 188.98 23.43, 208.42 0.98 M150.69 67.39 C171.44 44, 192.45 18.92, 208.42 0.98 M161.32 67.36 C177.6 48.46, 195.29 30.44, 219.05 0.94 M161.32 67.36 C174.41 51.04, 188.05 35.36, 219.05 0.94 M171.95 67.32 C185.48 51.76, 199.82 35.2, 229.68 0.91 M171.95 67.32 C187.59 49.43, 202.19 32.66, 229.68 0.91 M182.58 67.29 C203.93 42.94, 225.15 18.92, 240.31 0.87 M182.58 67.29 C201.39 46.01, 219.99 23.85, 240.31 0.87 M193.21 67.25 C211.55 45.05, 230.04 26.6, 250.94 0.84 M193.21 67.25 C211.27 47.91, 229.08 26.57, 250.94 0.84 M203.84 67.22 C218.42 50.9, 232.48 32.53, 261.57 0.8 M203.84 67.22 C218.65 49.17, 235 31.23, 261.57 0.8 M214.47 67.18 C235.22 45.12, 251.56 24.44, 272.2 0.77 M214.47 67.18 C226.6 53.53, 238.62 40.37, 272.2 0.77 M225.1 67.15 C239.29 54.94, 251.09 39.12, 282.83 0.73 M225.1 67.15 C240.83 48.99, 257.59 30.66, 282.83 0.73 M235.73 67.11 C249.06 53.22, 258.68 40.1, 293.46 0.7 M235.73 67.11 C255.77 43.06, 276.59 20.14, 293.46 0.7 M246.36 67.08 C266.12 45.22, 286.74 21.02, 304.09 0.66 M246.36 67.08 C258.89 53.29, 272.14 38.08, 304.09 0.66 M256.99 67.04 C279.64 41.13, 299.59 19.55, 314.07 1.38 M256.99 67.04 C277.24 45.37, 296.35 21.68, 314.07 1.38 M266.96 67.76 C283.19 50.3, 299.24 29.82, 324.7 1.35 M266.96 67.76 C286.2 46.98, 303.41 25.48, 324.7 1.35 M277.59 67.73 C298.3 41.89, 321.38 18.97, 335.33 1.32 M277.59 67.73 C295.58 47.22, 312.96 26.59, 335.33 1.32 M288.22 67.7 C302.42 51.02, 320.29 31.78, 343.99 3.55 M288.22 67.7 C300.38 54.15, 313.99 39.23, 343.99 3.55 M298.85 67.66 C312.7 54.89, 324.98 39.66, 351.99 6.53 M298.85 67.66 C318.34 46.74, 337.24 25.46, 351.99 6.53 M309.48 67.63 C320.99 53.1, 331.13 40.28, 356.72 13.29 M309.48 67.63 C318.65 56.52, 329.29 45.39, 356.72 13.29 M320.11 67.59 C326.45 59.13, 335.3 48.85, 356.85 25.33 M320.11 67.59 C329.75 56.04, 340.5 43.41, 356.85 25.33 M330.74 67.56 C336.12 59.26, 343.61 54.95, 356.98 37.37 M330.74 67.56 C339.07 59.03, 346.57 48.03, 356.98 37.37 M339.4 69.79 C346.67 63.65, 351.08 55.08, 357.12 49.41 M339.4 69.79 C346.51 62.13, 351.87 55.49, 357.12 49.41" stroke="#b2f2bb" stroke-width="1" fill="none"></path><path d="M16.83 0 C117.06 1, 219.89 0.91, 336.25 0 M16.83 0 C133.29 1.88, 248.99 1.27, 336.25 0 M336.25 0 C349.14 -1.04, 353.13 4.23, 353.09 16.83 M336.25 0 C345.7 2.02, 352.68 7.84, 353.09 16.83 M353.09 16.83 C354.99 25.5, 351.46 33.23, 353.09 50.5 M353.09 16.83 C353.21 29.09, 353 43.26, 353.09 50.5 M353.09 50.5 C351.39 62.23, 348.83 67.09, 336.25 67.33 M353.09 50.5 C354.74 63.31, 347.19 69.38, 336.25 67.33 M336.25 67.33 C250.25 68.29, 162.55 68.53, 16.83 67.33 M336.25 67.33 C243.86 69.06, 151.54 68.89, 16.83 67.33 M16.83 67.33 C5.11 67.45, 0.14 60.1, 0 50.5 M16.83 67.33 C3.57 69.16, 0.79 60.23, 0 50.5 M0 50.5 C1.35 41.42, -1.22 30.02, 0 16.83 M0 50.5 C0.65 42.52, 0.1 35.97, 0 16.83 M0 16.83 C0.77 6.79, 7.08 1.35, 16.83 0 M0 16.83 C2.13 7.13, 5.5 -1.99, 16.83 0" stroke="#1e1e1e" stroke-width="2" fill="none"></path></g><g transform="translate(838.7779353827991 124.64370807978594) rotate(0 55.215972900390625 17.5)"><text x="55.215972900390625" y="24.528" font-family="Virgil, Segoe UI Emoji" font-size="28px" fill="#1e1e1e" text-anchor="middle" style="white-space: pre;" direction="ltr" dominant-baseline="alphabetic">Op-Node</text></g><g stroke-linecap="round" transform="translate(1185.6129944888744 108.0754948927206) rotate(0 176.54352431132338 33.66420184993876)"><path d="M4.48 3.89 C4.48 3.89, 4.48 3.89, 4.48 3.89 M4.48 3.89 C4.48 3.89, 4.48 3.89, 4.48 3.89 M0.68 20.46 C4.91 15.66, 8.44 11.29, 18.39 0.09 M0.68 20.46 C4.42 15.18, 8.43 12.21, 18.39 0.09 M0.81 32.5 C12.06 19.59, 22.08 6.61, 29.02 0.05 M0.81 32.5 C7.1 24.73, 13.03 18.78, 29.02 0.05 M1.6 43.79 C15.99 27.54, 30.03 11.67, 39.65 0.02 M1.6 43.79 C13.2 29.81, 26.09 17.41, 39.65 0.02 M1.73 55.83 C20.2 36.53, 39.43 14.86, 50.28 -0.02 M1.73 55.83 C18.85 35.45, 38.64 13.57, 50.28 -0.02 M5.8 63.34 C24.55 43.99, 37.87 23.05, 60.91 -0.05 M5.8 63.34 C24.21 42.88, 41.27 23.92, 60.91 -0.05 M13.15 67.08 C25.96 52.96, 40.11 38.38, 71.54 -0.09 M13.15 67.08 C30.45 49.37, 44.51 29.45, 71.54 -0.09 M23.78 67.05 C39.64 45.93, 59.64 25.66, 82.17 -0.12 M23.78 67.05 C44.07 44.4, 62.7 22.36, 82.17 -0.12 M34.41 67.01 C45.63 54.16, 60.44 38.7, 92.8 -0.15 M34.41 67.01 C48.07 51, 60.96 34.92, 92.8 -0.15 M45.04 66.98 C59.42 52.14, 71.17 36.65, 102.78 0.57 M45.04 66.98 C59.52 52.21, 72.63 36.15, 102.78 0.57 M55.67 66.95 C70.81 51.74, 84.34 35.14, 113.41 0.53 M55.67 66.95 C76.55 42.24, 98.17 17.59, 113.41 0.53 M66.3 66.91 C85.33 47.24, 102.71 29.1, 124.04 0.5 M66.3 66.91 C88.33 40.79, 109.65 15.77, 124.04 0.5 M76.28 67.63 C95.71 42.7, 117.11 20.12, 134.67 0.46 M76.28 67.63 C98.59 41.7, 122.78 14.68, 134.67 0.46 M86.91 67.6 C106.76 43.62, 129.08 18.35, 145.3 0.43 M86.91 67.6 C109.87 41.39, 130.03 17.58, 145.3 0.43 M97.54 67.56 C117.59 43.34, 142.84 16.26, 155.93 0.39 M97.54 67.56 C111.08 53.54, 122.71 38.67, 155.93 0.39 M108.17 67.53 C122.49 50.71, 137.22 34.39, 166.56 0.36 M108.17 67.53 C124.76 47.88, 141.38 28.14, 166.56 0.36 M118.8 67.49 C137 48.44, 151.39 28.11, 177.19 0.32 M118.8 67.49 C131.96 53.47, 143.94 40.48, 177.19 0.32 M129.43 67.46 C147.21 48.36, 163.02 28.32, 187.82 0.29 M129.43 67.46 C141.86 53.25, 154.17 38.38, 187.82 0.29 M140.06 67.42 C155.05 52.09, 169.05 34.68, 198.45 0.25 M140.06 67.42 C154.16 50.29, 168.72 34.83, 198.45 0.25 M150.69 67.39 C172.65 44.28, 191.2 19.19, 209.08 0.22 M150.69 67.39 C172.62 43.02, 194.83 17.47, 209.08 0.22 M161.32 67.36 C183.13 40.47, 206.58 12.64, 219.71 0.19 M161.32 67.36 C179.42 47.28, 196.74 25.67, 219.71 0.19 M171.95 67.32 C183.39 52.53, 196.67 40.09, 230.34 0.15 M171.95 67.32 C192.12 44.56, 212.14 22.95, 230.34 0.15 M182.58 67.29 C195.31 51.71, 206.71 39.32, 240.97 0.12 M182.58 67.29 C200.01 46.9, 219.14 25.76, 240.97 0.12 M193.21 67.25 C217.38 42.94, 237.77 15.19, 251.6 0.08 M193.21 67.25 C206.31 51.66, 218.73 37.37, 251.6 0.08 M203.84 67.22 C225.98 42.25, 248.8 15.36, 262.23 0.05 M203.84 67.22 C216.31 51.24, 229.85 36.26, 262.23 0.05 M214.47 67.18 C228.35 50.88, 243.59 33.02, 272.86 0.01 M214.47 67.18 C236.19 43.93, 255.74 19.84, 272.86 0.01 M225.1 67.15 C246.31 45.05, 266.99 19.15, 282.83 0.73 M225.1 67.15 C247.11 41.35, 269.14 18.27, 282.83 0.73 M235.73 67.11 C255.81 43.72, 278.15 18.82, 293.46 0.7 M235.73 67.11 C255.28 45.73, 273.51 23.69, 293.46 0.7 M246.36 67.08 C266.5 46.58, 284.05 25.69, 304.09 0.66 M246.36 67.08 C265.28 44.42, 286.13 22.71, 304.09 0.66 M256.99 67.04 C282.14 40.11, 303.72 13.72, 314.72 0.63 M256.99 67.04 C279.49 42.18, 300.18 18.17, 314.72 0.63 M266.96 67.76 C282.91 49.47, 297.09 32.51, 325.35 0.6 M266.96 67.76 C281.43 51.48, 296.99 34.26, 325.35 0.6 M277.59 67.73 C297.32 44.9, 316.4 23.67, 335.98 0.56 M277.59 67.73 C290.21 54.56, 301.66 38.84, 335.98 0.56 M288.22 67.7 C310.78 45.41, 330.86 19.64, 344.64 2.79 M288.22 67.7 C307.26 47.34, 324.68 27.32, 344.64 2.79 M298.85 67.66 C311.88 55.18, 324.03 39.33, 351.34 7.28 M298.85 67.66 C318.66 43.56, 339.28 20.4, 351.34 7.28 M309.48 67.63 C321.63 54.51, 334.14 36.22, 352.13 18.57 M309.48 67.63 C320.73 55.21, 330.96 42.23, 352.13 18.57 M320.11 67.59 C332.41 54.24, 342.41 40.6, 352.26 30.61 M320.11 67.59 C329.33 56.5, 340.75 44.47, 352.26 30.61 M330.74 67.56 C336.98 60.85, 338.23 58.08, 352.39 42.65 M330.74 67.56 C337.51 60.03, 342.98 53.14, 352.39 42.65 M341.37 67.52 C342.36 65.24, 345.12 62.01, 352.53 54.69 M341.37 67.52 C344.83 64.27, 346.18 61.9, 352.53 54.69" stroke="#b2f2bb" stroke-width="1" fill="none"></path><path d="M16.83 0 C85.34 -1.08, 151.57 -0.49, 336.25 0 M16.83 0 C95.56 2.16, 175.25 2.22, 336.25 0 M336.25 0 C345.9 0.52, 352.57 7.43, 353.09 16.83 M336.25 0 C348.87 -1.97, 354.81 7.59, 353.09 16.83 M353.09 16.83 C351.69 28.84, 354.03 40.57, 353.09 50.5 M353.09 16.83 C354.03 28.49, 353.19 39.66, 353.09 50.5 M353.09 50.5 C352.56 59.93, 349.09 69.3, 336.25 67.33 M353.09 50.5 C351.71 63.47, 346.48 67.07, 336.25 67.33 M336.25 67.33 C242.06 66.56, 146.77 66.57, 16.83 67.33 M336.25 67.33 C237.88 66.07, 140.99 65.06, 16.83 67.33 M16.83 67.33 C6.01 65.9, 1.99 62.83, 0 50.5 M16.83 67.33 C7.55 65.65, 1.21 60.03, 0 50.5 M0 50.5 C-0.93 42.11, 1.19 34.88, 0 16.83 M0 50.5 C0.68 39.07, -0.29 25.46, 0 16.83 M0 16.83 C1.52 3.91, 5.87 1.7, 16.83 0 M0 16.83 C-0.91 3.4, 4.2 -0.5, 16.83 0" stroke="#1e1e1e" stroke-width="2" fill="none"></path></g><g transform="translate(1315.6345461439469 124.23969674265936) rotate(0 46.52197265625 17.5)"><text x="46.52197265625" y="24.528" font-family="Virgil, Segoe UI Emoji" font-size="28px" fill="#1e1e1e" text-anchor="middle" style="white-space: pre;" direction="ltr" dominant-baseline="alphabetic">Builder</text></g><g stroke-linecap="round"><g transform="translate(334.69906887522666 176.93244314888943) rotate(0 0.02434945601544314 380.77472655495603)"><path d="M1 -0.62 C0.92 126.24, 0.35 633.81, 0.03 761.07 M0.06 1.67 C-0.22 128.67, -1.15 635.59, -0.91 762.17" stroke="#1e1e1e" stroke-width="2" fill="none"></path></g></g><mask></mask><g stroke-linecap="round"><g transform="translate(880.5863781420703 180.93271441502657) rotate(0 -0.059654929827047454 380.0899679941367)"><path d="M0.03 -0.83 C-0.29 126.11, -0.89 634.02, -0.93 761.01 M-1.42 1.35 C-1.46 128.03, 1.25 633.1, 1.3 759.44" stroke="#1e1e1e" stroke-width="2" fill="none"></path></g></g><mask></mask><g stroke-linecap="round"><g transform="translate(1384.5986514596516 177.12204345557984) rotate(0 -0.25446780832498916 381.2130159516373)"><path d="M-0.21 1.17 C-0.21 127.94, -0.93 634.81, -0.94 761.69 M-1.78 0.73 C-1.33 127.64, 1.18 633.08, 1.27 759.74" stroke="#1e1e1e" stroke-width="2" fill="none"></path></g></g><mask></mask><g mask="url(#mask-iIOyvJffC9En2lScJuLX6)" stroke-linecap="round"><g transform="translate(335.98236012081907 215.63210310916656) rotate(0 270.0733724316815 -0.18149038888532232)"><path d="M-0.16 -0.88 C89.73 -0.84, 450.33 0.32, 540.31 0.52" stroke="#e03131" stroke-width="2.5" fill="none" stroke-dasharray="8 10"></path></g><g transform="translate(335.98236012081907 215.63210310916656) rotate(0 270.0733724316815 -0.18149038888532232)"><path d="M516.8 9.01 C524.19 5.13, 535.42 0.93, 540.31 0.52" stroke="#e03131" stroke-width="2.5" fill="none"></path></g><g transform="translate(335.98236012081907 215.63210310916656) rotate(0 270.0733724316815 -0.18149038888532232)"><path d="M516.84 -8.09 C524.25 -5.51, 535.47 -3.25, 540.31 0.52" stroke="#e03131" stroke-width="2.5" fill="none"></path></g></g><mask id="mask-iIOyvJffC9En2lScJuLX6"><rect x="0" y="0" fill="#fff" width="976.7174906190521" height="315.63210310916656"></rect><rect x="431.1960252234512" y="198.13210310916656" fill="#000" width="350.30780029296875" height="35" opacity="1"></rect></mask><g transform="translate(431.1960252234512 198.13210310916656) rotate(0 174.85970732904934 17.318509611114678)"><text x="175.15390014648438" y="24.528" font-family="Virgil, Segoe UI Emoji" font-size="28px" fill="#e03131" text-anchor="middle" style="white-space: pre;" direction="ltr" dominant-baseline="alphabetic">Fork Choice Update (p2p)</text></g><g mask="url(#mask-vyKfLa4jmWtHmsUpebgID)" stroke-linecap="round"><g transform="translate(339.5958778166387 599.6576615875729) rotate(0 519.0870462016346 0.49160809287150187)"><path d="M-1.02 0.31 C42.31 0.25, 86.17 0.09, 259.54 0.18 C432.91 0.27, 909.42 0.68, 1039.2 0.83" stroke="#2f9e44" stroke-width="2.5" fill="none" stroke-dasharray="8 10"></path></g><g transform="translate(339.5958778166387 599.6576615875729) rotate(0 519.0870462016346 0.49160809287150187)"><path d="M1015.69 9.36 C1022.39 8.65, 1027.86 6.48, 1039.2 0.83" stroke="#2f9e44" stroke-width="2.5" fill="none"></path></g><g transform="translate(339.5958778166387 599.6576615875729) rotate(0 519.0870462016346 0.49160809287150187)"><path d="M1015.71 -7.74 C1022.48 -3.93, 1027.94 -1.57, 1039.2 0.83" stroke="#2f9e44" stroke-width="2.5" fill="none"></path></g></g><mask id="mask-vyKfLa4jmWtHmsUpebgID"><rect x="0" y="0" fill="#fff" width="1477.9267115700532" height="699.9785187479611"></rect><rect x="510.8126578683241" y="582.4785187479611" fill="#000" width="175.02793884277344" height="35" opacity="1"></rect></mask><g transform="translate(510.8126578683241 582.4785187479611) rotate(0 347.8702661499492 17.670750932483315)"><text x="87.51396942138672" y="24.528" font-family="Virgil, Segoe UI Emoji" font-size="28px" fill="#2f9e44" text-anchor="middle" style="white-space: pre;" direction="ltr" dominant-baseline="alphabetic">Get Payload</text></g><g mask="url(#mask-ua1bxC9ZKQf2gbBxBjlsz)" stroke-linecap="round"><g transform="translate(877.9074086346955 236.38407091947556) rotate(0 253.07549003422537 -3.8368214394386086)"><path d="M0.86 0.83 C85.11 -0.3, 422.08 -5.29, 506.29 -6.94 M-0.14 0.22 C83.86 -1.21, 421.04 -7.08, 505.27 -8.5" stroke="#e03131" stroke-width="2" fill="none"></path></g><g transform="translate(877.9074086346955 236.38407091947556) rotate(0 253.07549003422537 -3.8368214394386086)"><path d="M481.92 0.45 C491.89 -3.26, 500.87 -6.83, 505.27 -8.5 M481.92 0.45 C486.17 -0.91, 491.26 -3.67, 505.27 -8.5" stroke="#e03131" stroke-width="2" fill="none"></path></g><g transform="translate(877.9074086346955 236.38407091947556) rotate(0 253.07549003422537 -3.8368214394386086)"><path d="M481.63 -16.65 C491.69 -14.07, 500.78 -11.36, 505.27 -8.5 M481.63 -16.65 C486.08 -14.4, 491.23 -13.56, 505.27 -8.5" stroke="#e03131" stroke-width="2" fill="none"></path></g></g><mask id="mask-ua1bxC9ZKQf2gbBxBjlsz"><rect x="0" y="0" fill="#fff" width="1484.3488731186808" height="344.3933857637767"></rect><rect x="997.2882055739537" y="214.879413497325" fill="#000" width="267.67987060546875" height="35" opacity="1"></rect></mask><g transform="translate(997.2882055739537 214.879413497325) rotate(0 133.69469309496708 17.66783598271195)"><text x="133.83993530273438" y="24.528" font-family="Virgil, Segoe UI Emoji" font-size="28px" fill="#e03131" text-anchor="middle" style="white-space: pre;" direction="ltr" dominant-baseline="alphabetic">Fork Choice Update</text></g><g mask="url(#mask-PEqeuipfihNU8C-0uhcCM)" stroke-linecap="round"><g transform="translate(1384.4254370937015 665.2716748419898) rotate(0 -523.2926295946118 0.21024378389938647)"><path d="M-0.32 -1.07 C-133.07 -1.02, -622.36 1.06, -796.68 1.39 C-971.01 1.72, -1004.7 1.17, -1046.27 0.91" stroke="#2f9e44" stroke-width="2.5" fill="none" stroke-dasharray="8 10"></path></g><g transform="translate(1384.4254370937015 665.2716748419898) rotate(0 -523.2926295946118 0.21024378389938647)"><path d="M-1022.72 -7.47 C-1031.2 -3.51, -1034.22 -3.91, -1046.27 0.91" stroke="#2f9e44" stroke-width="2.5" fill="none"></path></g><g transform="translate(1384.4254370937015 665.2716748419898) rotate(0 -523.2926295946118 0.21024378389938647)"><path d="M-1022.84 9.63 C-1031.44 8.67, -1034.42 3.36, -1046.27 0.91" stroke="#2f9e44" stroke-width="2.5" fill="none"></path></g></g><mask id="mask-PEqeuipfihNU8C-0uhcCM"><rect x="0" y="0" fill="#fff" width="2529.976233432384" height="765.4794136803011"></rect><rect x="532.8781452459607" y="647.9794136803011" fill="#000" width="107.79995727539062" height="35" opacity="1"></rect></mask><g transform="translate(532.8781452459607 647.9794136803011) rotate(0 328.254662253129 17.502504945588043)"><text x="53.89997863769531" y="24.528" font-family="Virgil, Segoe UI Emoji" font-size="28px" fill="#2f9e44" text-anchor="middle" style="white-space: pre;" direction="ltr" dominant-baseline="alphabetic">Payload</text></g><g stroke-linecap="round"><g transform="translate(339.9710636712698 753.9901115475986) rotate(0 23.991751493415904 39.45119753713789)"><path d="M0.09 -0.97 C8.29 5.54, 49.12 25.7, 48.95 39.17 C48.77 52.65, 7.38 73.1, -0.97 79.88" stroke="#2f9e44" stroke-width="2.5" fill="none" stroke-dasharray="8 10"></path></g><g transform="translate(339.9710636712698 753.9901115475986) rotate(0 23.991751493415904 39.45119753713789)"><path d="M14.22 60.01 C8.43 63.71, 7.47 71.63, -0.97 79.88" stroke="#2f9e44" stroke-width="2.5" fill="none"></path></g><g transform="translate(339.9710636712698 753.9901115475986) rotate(0 23.991751493415904 39.45119753713789)"><path d="M23.43 74.42 C15.1 74.16, 11.61 78.12, -0.97 79.88" stroke="#2f9e44" stroke-width="2.5" fill="none"></path></g></g><mask></mask><g transform="translate(402.6460511829282 773.5952808290895) rotate(0 109.96995544433594 17.5)"><text x="0" y="24.528" font-family="Virgil, Segoe UI Emoji" font-size="28px" fill="#2f9e44" text-anchor="start" style="white-space: pre;" direction="ltr" dominant-baseline="alphabetic">simulatePayload</text></g><g transform="translate(1086.5417373006821 19.125434136378317) rotate(0 46.52197265625 17.5)"><text x="0" y="24.528" font-family="Virgil, Segoe UI Emoji" font-size="28px" fill="#1e1e1e" text-anchor="start" style="white-space: pre;" direction="ltr" dominant-baseline="alphabetic">Builder</text></g><g transform="translate(310.56107750804404 10) rotate(0 19.417991638183594 17.5)"><text x="0" y="24.528" font-family="Virgil, Segoe UI Emoji" font-size="28px" fill="#1e1e1e" text-anchor="start" style="white-space: pre;" direction="ltr" dominant-baseline="alphabetic">OP</text></g><g stroke-linecap="round"><g transform="translate(919.6943796093474 1006.1171496264033) rotate(0 42.25686387422684 0.6369998367717926)"><path d="M1.2 0.67 C15.04 0.9, 69.69 0.55, 83.32 0.53" stroke="#1e1e1e" stroke-width="2.5" fill="none" stroke-dasharray="8 10"></path></g></g><mask></mask><g transform="translate(1024.5362278842222 991.6468950757298) rotate(0 109.2559585571289 17.5)"><text x="0" y="24.528" font-family="Virgil, Segoe UI Emoji" font-size="28px" fill="#1e1e1e" text-anchor="start" style="white-space: pre;" direction="ltr" dominant-baseline="alphabetic">variable latency</text></g><g stroke-linecap="round"><g transform="translate(921.4119683789613 1054.9860326910675) rotate(0 42.144676399681885 0.1929709874702894)"><path d="M0.63 -0.88 C14.2 -0.6, 68.59 0.76, 82.43 0.84 M-0.5 1.27 C13.38 1.3, 70.84 -0.75, 84.79 -0.85" stroke="#1e1e1e" stroke-width="2" fill="none"></path></g></g><mask></mask><g transform="translate(1023.9158279273033 1039.6139004252364) rotate(0 89.08195495605469 17.5)"><text x="0" y="24.528" font-family="Virgil, Segoe UI Emoji" font-size="28px" fill="#1e1e1e" text-anchor="start" style="white-space: pre;" direction="ltr" dominant-baseline="alphabetic">fixed latency</text></g><g stroke-linecap="round"><g transform="translate(1317.1754408953875 1016.4867686979596) rotate(0 38.479491448964836 -0.45474676026424277)"><path d="M0.55 -0.42 C13.6 -0.42, 64.64 0.67, 77.57 0.86 M-0.62 -1.69 C12.32 -2.09, 63.53 -0.89, 76.57 -0.81" stroke="#2f9e44" stroke-width="2" fill="none"></path></g></g><mask></mask><g stroke-linecap="round"><g transform="translate(1315.9001743172867 1058.289088017238) rotate(0 40.40760234566096 -0.06364874936025444)"><path d="M-0.11 0.86 C13.54 1.05, 68.62 0.72, 82.45 0.71 M-1.63 0.26 C11.85 0.14, 67.71 -0.81, 81.74 -1.04" stroke="#e03131" stroke-width="2" fill="none"></path></g></g><mask></mask><g transform="translate(1417.8755450134358 990.7918704823278) rotate(0 89.61395263671875 17.5)"><text x="0" y="24.528" font-family="Virgil, Segoe UI Emoji" font-size="28px" fill="#2f9e44" text-anchor="start" style="white-space: pre;" direction="ltr" dominant-baseline="alphabetic">payload path</text></g><g transform="translate(1416.445178446107 1037.103578377344) rotate(0 104.91593933105469 17.5)"><text x="0" y="24.528" font-family="Virgil, Segoe UI Emoji" font-size="28px" fill="#e03131" text-anchor="start" style="white-space: pre;" direction="ltr" dominant-baseline="alphabetic">forkchoice path</text></g><g transform="translate(1677.1468369029826 393.644119533672) rotate(0 185.84991455078125 17.5)"><text x="0" y="24.528" font-family="Virgil, Segoe UI Emoji" font-size="28px" fill="#1e1e1e" text-anchor="start" style="white-space: pre;" direction="ltr" dominant-baseline="alphabetic">timespan for building blocks</text></g><g stroke-linecap="round"><g transform="translate(1665.738259001757 411.54132844619016) rotate(0 -126.6095544224163 -0.06767462019979575)"><path d="M-0.06 -1.04 C-42.36 -1.3, -210.46 -1.14, -252.69 -0.75 M-1.54 1.03 C-44.02 0.82, -211.07 0.51, -253.16 0.25" stroke="#1e1e1e" stroke-width="2" fill="none"></path></g><g transform="translate(1665.738259001757 411.54132844619016) rotate(0 -126.6095544224163 -0.06767462019979575)"><path d="M-229.64 -8.21 C-240.55 -3.38, -249.75 -1.31, -253.16 0.25 M-229.64 -8.21 C-239.34 -5.39, -248.55 -1.91, -253.16 0.25" stroke="#1e1e1e" stroke-width="2" fill="none"></path></g><g transform="translate(1665.738259001757 411.54132844619016) rotate(0 -126.6095544224163 -0.06767462019979575)"><path d="M-229.7 8.89 C-240.7 7.01, -249.88 2.36, -253.16 0.25 M-229.7 8.89 C-239.31 5.13, -248.5 2.03, -253.16 0.25" stroke="#1e1e1e" stroke-width="2" fill="none"></path></g></g><mask></mask><g stroke-linecap="round"><g transform="translate(238.1167348599629 552.4007665887184) rotate(0 45.96651286555334 0.686955660537933)"><path d="M0.91 -1.02 C16.25 -0.45, 76.93 2.19, 92 2.39 M-0.07 1.06 C15.13 1.41, 76.07 0.83, 91.14 0.81" stroke="#1e1e1e" stroke-width="2" fill="none"></path></g><g transform="translate(238.1167348599629 552.4007665887184) rotate(0 45.96651286555334 0.686955660537933)"><path d="M67.69 9.49 C72.99 7, 83.32 3.39, 91.14 0.81 M67.69 9.49 C71.76 7.78, 77.69 6.1, 91.14 0.81" stroke="#1e1e1e" stroke-width="2" fill="none"></path></g><g transform="translate(238.1167348599629 552.4007665887184) rotate(0 45.96651286555334 0.686955660537933)"><path d="M67.6 -7.61 C72.78 -5.05, 83.13 -3.61, 91.14 0.81 M67.6 -7.61 C71.58 -5.83, 77.53 -4.03, 91.14 0.81" stroke="#1e1e1e" stroke-width="2" fill="none"></path></g></g><mask></mask><g transform="translate(10 538.5334157285833) rotate(0 101.96195220947266 17.5)"><text x="0" y="24.528" font-family="Virgil, Segoe UI Emoji" font-size="28px" fill="#1e1e1e" text-anchor="start" style="white-space: pre;" direction="ltr" dominant-baseline="alphabetic">ConfirmPayload</text></g><g stroke-linecap="round"><g transform="translate(232.50182101804603 200.31920084041485) rotate(0 53.719492732597246 -0.018185290012297628)"><path d="M-0.47 -1.15 C17.1 -1.37, 87.94 -0.45, 105.59 -0.26 M1.48 0.85 C19.43 1.34, 90.19 1.06, 107.91 1.14" stroke="#1e1e1e" stroke-width="2" fill="none"></path></g><g transform="translate(232.50182101804603 200.31920084041485) rotate(0 53.719492732597246 -0.018185290012297628)"><path d="M84.42 9.69 C89.77 5.88, 98.62 2.9, 107.91 1.14 M84.42 9.69 C91.93 6.56, 97.9 3.68, 107.91 1.14" stroke="#1e1e1e" stroke-width="2" fill="none"></path></g><g transform="translate(232.50182101804603 200.31920084041485) rotate(0 53.719492732597246 -0.018185290012297628)"><path d="M84.42 -7.41 C89.92 -5.87, 98.77 -3.5, 107.91 1.14 M84.42 -7.41 C92 -5.39, 97.97 -3.11, 107.91 1.14" stroke="#1e1e1e" stroke-width="2" fill="none"></path></g></g><mask></mask><g transform="translate(24.43859212876123 188.25328316968444) rotate(0 93.58995819091797 17.5)"><text x="0" y="24.528" font-family="Virgil, Segoe UI Emoji" font-size="28px" fill="#1e1e1e" text-anchor="start" style="white-space: pre;" direction="ltr" dominant-baseline="alphabetic">StartPayload</text></g><g stroke-linecap="round" transform="translate(1366.972409848062 241.92667489736414) rotate(0 17.407405326170192 167.26726979979048)"><path d="M20.24 2.51 C21.99 3.4, 23.88 14.46, 25.58 24.28 C27.29 34.09, 28.99 46.54, 30.46 61.4 C31.94 76.26, 33.74 95.29, 34.44 113.45 C35.15 131.62, 35 151.27, 34.71 170.4 C34.42 189.53, 33.53 210.35, 32.69 228.23 C31.86 246.12, 30.9 263.4, 29.69 277.71 C28.47 292.02, 27.1 305.08, 25.42 314.09 C23.74 323.11, 21.43 328.85, 19.6 331.79 C17.78 334.74, 16.36 335.45, 14.47 331.78 C12.58 328.11, 10.04 319.55, 8.25 309.78 C6.47 300.01, 4.82 288.03, 3.73 273.15 C2.64 258.28, 2.41 238.7, 1.71 220.51 C1.02 202.33, -0.28 183.02, -0.43 164.06 C-0.59 145.1, 0.12 124.7, 0.79 106.75 C1.45 88.8, 2.29 70.72, 3.56 56.36 C4.82 42, 6.52 29.78, 8.38 20.59 C10.23 11.4, 12.52 3.76, 14.69 1.21 C16.86 -1.33, 19.97 3.67, 21.39 5.31 C22.82 6.95, 23.22 8.39, 23.23 11.04 M20.67 1.42 C22.6 1.82, 24.34 12.37, 25.87 22.49 C27.39 32.6, 28.42 47.06, 29.82 62.08 C31.23 77.11, 33.68 94.96, 34.28 112.62 C34.89 130.28, 33.6 148.98, 33.46 168.05 C33.31 187.12, 33.83 208.94, 33.43 227.05 C33.02 245.15, 32.06 262.24, 31.01 276.67 C29.96 291.11, 28.87 304.6, 27.13 313.65 C25.39 322.69, 22.54 327.76, 20.58 330.93 C18.61 334.1, 17.38 335.93, 15.36 332.67 C13.33 329.42, 10.49 321.11, 8.44 311.39 C6.38 301.66, 4.04 289.04, 3.02 274.31 C2.01 259.59, 3.03 241.37, 2.34 223.04 C1.66 204.7, -0.92 183.61, -1.08 164.31 C-1.23 145.01, 0.75 124.82, 1.42 107.23 C2.1 89.64, 1.87 73.16, 2.97 58.77 C4.07 44.37, 5.89 30.47, 8.03 20.84 C10.18 11.22, 13.8 3.85, 15.84 1 C17.88 -1.85, 19.48 2.8, 20.29 3.73 C21.09 4.65, 20.44 3.91, 20.66 6.55" stroke="#1e1e1e" stroke-width="2" fill="none"></path></g><g mask="url(#mask-3Hzp8h6chGEhD6PbczROL)" stroke-linecap="round"><g transform="translate(342.31245774342824 310.82618339189867) rotate(0 518.682115180899 -1.2158832092773082)"><path d="M-0.11 -0.64 C44.99 -1.21, 96.88 -2.67, 269.81 -2.55 C442.75 -2.42, 909.46 -0.35, 1037.48 0.12" stroke="#2f9e44" stroke-width="2.5" fill="none" stroke-dasharray="8 10"></path></g><g transform="translate(342.31245774342824 310.82618339189867) rotate(0 518.682115180899 -1.2158832092773082)"><path d="M1013.95 8.58 C1018.26 6.57, 1023.5 3.28, 1037.48 0.12" stroke="#2f9e44" stroke-width="2.5" fill="none"></path></g><g transform="translate(342.31245774342824 310.82618339189867) rotate(0 518.682115180899 -1.2158832092773082)"><path d="M1014.02 -8.52 C1018.44 -6.58, 1023.67 -5.93, 1037.48 0.12" stroke="#2f9e44" stroke-width="2.5" fill="none"></path></g></g><mask id="mask-3Hzp8h6chGEhD6PbczROL"><rect x="0" y="0" fill="#fff" width="1480.6432914968427" height="412.6257040835444"></rect><rect x="469.1196858513158" y="291.5266627002529" fill="#000" width="286.1038818359375" height="35" opacity="1"></rect></mask><g transform="translate(469.1196858513158 291.5266627002529) rotate(0 391.87488707301145 18.08363748236843)"><text x="143.05194091796875" y="24.528" font-family="Virgil, Segoe UI Emoji" font-size="28px" fill="#2f9e44" text-anchor="middle" style="white-space: pre;" direction="ltr" dominant-baseline="alphabetic">Forward Transaction</text></g></svg>